<?xml version="1.0" encoding="UTF-8"?>
<svg xmlns="http://www.w3.org/2000/svg" xmlns:xlink="http://www.w3.org/1999/xlink" width="375pt" height="374.999991pt" viewBox="0 0 375 374.999991" version="1.2">
<defs>
<clipPath id="clip1">
  <path d="M 1.726562 1.726562 L 372.976562 1.726562 L 372.976562 372.976562 L 1.726562 372.976562 Z M 1.726562 1.726562 "/>
</clipPath>
</defs>
<g id="surface1">
<g clip-path="url(#clip1)" clip-rule="nonzero">
<path style=" stroke:none;fill-rule:nonzero;fill:rgb(11.759949%,11.759949%,14.118958%);fill-opacity:1;" d="M 187.351562 1.726562 C 84.996094 1.726562 1.726562 84.996094 1.726562 187.351562 C 1.726562 289.703125 84.996094 372.976562 187.351562 372.976562 C 289.703125 372.976562 372.976562 289.703125 372.976562 187.351562 C 372.976562 84.996094 289.703125 1.726562 187.351562 1.726562 Z M 75.449219 316.1875 C 75.757812 315.371094 75.976562 314.503906 75.976562 313.574219 C 75.976562 252.164062 125.9375 202.199219 187.351562 202.199219 C 248.761719 202.199219 298.726562 252.164062 298.726562 313.574219 C 298.726562 314.503906 298.941406 315.371094 299.25 316.195312 C 269.253906 342.273438 230.132812 358.125 187.351562 358.125 C 144.566406 358.125 105.445312 342.273438 75.449219 316.1875 Z M 313.03125 302.832031 C 308.546875 250.070312 271.519531 206.519531 222.121094 192.332031 C 241.308594 180.570312 254.175781 159.476562 254.175781 135.375 C 254.175781 98.53125 224.199219 68.550781 187.351562 68.550781 C 150.507812 68.550781 120.523438 98.53125 120.523438 135.375 C 120.523438 159.476562 133.390625 180.570312 152.578125 192.332031 C 103.171875 206.519531 66.144531 250.0625 61.667969 302.832031 C 33.695312 272.402344 16.574219 231.839844 16.574219 187.351562 C 16.574219 93.1875 93.1875 16.574219 187.351562 16.574219 C 281.519531 16.574219 358.125 93.1875 358.125 187.351562 C 358.125 231.839844 341.003906 272.402344 313.03125 302.832031 Z M 187.351562 187.351562 C 158.6875 187.351562 135.375 164.035156 135.375 135.375 C 135.375 106.714844 158.6875 83.398438 187.351562 83.398438 C 216.003906 83.398438 239.324219 106.714844 239.324219 135.375 C 239.324219 164.035156 216.003906 187.351562 187.351562 187.351562 Z M 187.351562 187.351562 "/>
</g>
</g>
</svg>
